<svg width="42" height="42" viewBox="0 0 42 42" fill="none" xmlns="http://www.w3.org/2000/svg">
<path d="M37 0H5C2.24 0 0 2.24 0 5V37C0 39.76 2.24 42 5 42H37C39.76 42 42 39.76 42 37V5C42 2.24 39.76 0 37 0ZM33.72 29L29.99 28.99C29.99 28.99 29.91 29 29.78 29C29.48 29 28.86 28.92 28.13 28.42C26.82 27.51 25.57 25.25 24.58 25.25C24.51 25.25 24.45 25.26 24.39 25.28C23.53 25.55 23.27 26.41 23.27 27.46C23.27 27.83 23.01 28 22.31 28H20.38C18.22 28 16.13 27.95 13.78 25.38C10.32 21.59 7.08 14.85 7.08 14.85C7.08 14.85 6.9 14.46 7.09 14.23C7.27 14.02 7.69 14 7.85 14C7.89 14 7.91 14 7.91 14H11.91C11.91 14 12.28 14.07 12.55 14.27C12.78 14.44 12.9 14.75 12.9 14.75C12.9 14.75 13.58 16.07 14.43 17.56C15.86 20.02 16.63 20.84 17.18 20.84C17.27 20.84 17.36 20.82 17.45 20.77C18.27 20.32 18.03 16.68 18.03 16.68C18.03 16.68 18.04 15.36 17.61 14.78C17.28 14.32 16.65 14.19 16.37 14.15C16.15 14.12 16.51 13.6 16.99 13.36C17.61 13.06 18.64 13 19.88 13H20.48C21.65 13.02 21.68 13.14 22.14 13.25C23.52 13.58 23.05 14.87 23.05 17.96C23.05 18.95 22.87 20.34 23.58 20.81C23.63 20.84 23.7 20.86 23.79 20.86C24.25 20.86 25.24 20.27 26.82 17.6C27.7 16.08 28.38 14.57 28.38 14.57C28.38 14.57 28.53 14.3 28.76 14.16C28.98 14.03 28.98 14.03 29.27 14.03H29.3C29.62 14.03 32.8 14 33.5 14H33.58C34.25 14 34.86 14.01 34.97 14.42C35.13 15.04 34.48 16.15 32.77 18.45C29.95 22.22 29.63 21.94 31.97 24.12C34.21 26.2 34.67 27.21 34.75 27.34C35.68 28.88 33.72 29 33.72 29Z" fill="#808080"/>
</svg>
